<svg id="Layer_1" enable-background="new 0 0 128 128" height="512" viewBox="0 0 128 128" width="512" xmlns="http://www.w3.org/2000/svg"><g><path d="m116.5 11.625h-101c-4.411 0-8 3.589-8 8v70.55c0 4.411 3.589 8 8 8h37.756l-5.175 12.541h-10.831c-2.757 0-5 2.243-5 5v3.66c0 .552.448 1 1 1h65.5c.552 0 1-.448 1-1v-3.66c0-2.757-2.243-5-5-5h-10.831l-5.175-12.541h37.756c4.411 0 8-3.589 8-8v-70.55c0-4.411-3.589-8-8-8z" fill="#e6e7e8"/><g><path d="m11.5 93.175h101c3.866 0 7-3.134 7-7v-70.55c0-3.866-3.134-7-7-7h-101c-3.866 0-7 3.134-7 7v70.549c0 3.867 3.134 7.001 7 7.001z" fill="#0089ef"/><path d="m50.75 93.175h22.5l6 14.54h-34.5z" fill="#6dc9f7"/><path d="m29.25 115.375h65.5v-3.66c0-2.209-1.791-4-4-4h-57.5c-2.209 0-4 1.791-4 4z" fill="#0089ef"/><path d="m16.783 80.689h90.433c2.761 0 5-2.239 5-5v-54.78c0-2.761-2.239-5-5-5h-90.433c-2.761 0-5 2.239-5 5v54.78c0 2.761 2.239 5 5 5z" fill="#d4fbff"/><g><path d="m64.497 59.426c.939-1.417 1.688-2.966 2.259-4.598h-9.522c-2.184 3.2-5.858 5.303-10.025 5.303-6.7 0-12.131-5.432-12.131-12.131 0-6.7 5.431-12.131 12.131-12.131 4.167 0 7.841 2.103 10.025 5.303h9.522c-.571-1.632-1.32-3.181-2.259-4.598l2.537-2.537c.579-.579.579-1.518 0-2.097l-3.765-3.765c-.579-.579-1.518-.579-2.097 0l-2.537 2.537c-2.175-1.441-4.636-2.484-7.281-3.021v-3.583c0-.819-.664-1.483-1.483-1.483h-5.324c-.819 0-1.483.664-1.483 1.483v3.583c-2.646.537-5.106 1.58-7.281 3.021l-2.537-2.537c-.579-.579-1.518-.579-2.097 0l-3.765 3.765c-.579.579-.579 1.518 0 2.097l2.537 2.537c-1.44 2.175-2.484 4.636-3.021 7.281h-3.583c-.819 0-1.483.664-1.483 1.483v5.324c0 .819.664 1.483 1.483 1.483h3.583c.537 2.646 1.58 5.106 3.021 7.281l-2.537 2.537c-.579.579-.579 1.518 0 2.097l3.765 3.765c.579.579 1.518.579 2.097 0l2.537-2.537c2.175 1.441 4.636 2.484 7.281 3.021v3.583c0 .819.664 1.483 1.483 1.483h5.324c.819 0 1.483-.664 1.483-1.483v-3.583c2.646-.537 5.106-1.58 7.281-3.021l2.537 2.537c.579.579 1.518.579 2.097 0l3.765-3.765c.579-.579.579-1.518 0-2.097z" fill="#fa759e"/><g><g><path d="m51.316 54.829-11.124-6.827 11.124-6.83h48.339c1.387 0 2.512 1.125 2.512 2.512v8.634c0 1.387-1.125 2.512-2.512 2.512z" fill="#ffd7e5"/></g><g><path d="m51.316 54.829v-13.657h48.339c1.387 0 2.512 1.125 2.512 2.512v8.634c0 1.387-1.125 2.512-2.512 2.512z" fill="#0089ef"/></g><path d="m96.331 54.829h3.324c1.387 0 2.512-1.125 2.512-2.512v-8.634c0-1.387-1.125-2.512-2.512-2.512h-3.324z" fill="#fa759e"/></g></g><path d="m107.217 80.689h-90.434c-2.761 0-5-2.239-5-5v-3c0 2.761 2.239 5 5 5h90.433c2.761 0 5-2.239 5-5v3c.001 2.761-2.238 5-4.999 5z" fill="#fff"/><circle cx="62" cy="86.702" fill="#6dc9f7" r="3.121"/><g fill="#3a2c60"><path d="m23.316 42.855c-1.369 0-2.483 1.114-2.483 2.483v5.324c0 1.369 1.114 2.482 2.483 2.482h2.781c.526 2.168 1.381 4.228 2.549 6.141l-1.97 1.971c-.968.968-.968 2.544 0 3.512l3.765 3.765c.937.937 2.573.938 3.511 0l1.97-1.97c1.914 1.167 3.973 2.021 6.141 2.548v2.781c0 1.369 1.114 2.483 2.483 2.483h5.324c1.369 0 2.483-1.114 2.483-2.483v-2.782c2.168-.526 4.228-1.381 6.141-2.548l1.97 1.97c.969.97 2.544.969 3.511 0l3.765-3.765c.968-.968.968-2.544 0-3.512l-1.97-1.971c.675-1.105 1.239-2.261 1.701-3.457h32.183c1.937 0 3.512-1.575 3.512-3.512v-8.634c0-1.937-1.575-3.512-3.512-3.512h-32.182c-.462-1.196-1.026-2.352-1.701-3.457l1.97-1.971c.968-.968.968-2.543 0-3.511l-3.765-3.765c-.967-.969-2.543-.969-3.511 0l-1.97 1.97c-1.915-1.168-3.974-2.022-6.141-2.549v-2.781c0-1.369-1.114-2.482-2.483-2.482h-5.324c-1.369 0-2.483 1.113-2.483 2.482v2.781c-2.167.526-4.227 1.381-6.141 2.549l-1.97-1.97c-.968-.969-2.543-.968-3.511 0l-3.765 3.765c-.968.968-.968 2.543 0 3.511l1.97 1.971c-1.168 1.913-2.022 3.973-2.549 6.141h-2.782zm20.434 4.136 6.566-4.032v10.083l-6.566-4.029zm7.566-6.82c-.185 0-.366.051-.523.147l-11.124 6.831c-.296.183-.477.505-.477.853s.181.671.477.853l11.124 6.826c.157.097.338.147.523.147h3.778c-2.016 2.034-4.802 3.303-7.885 3.303-6.138 0-11.131-4.993-11.131-11.131s4.994-11.132 11.131-11.132c3.083 0 5.868 1.269 7.885 3.303zm1 13.657v-11.657h43.015v11.657zm48.851-10.145v8.634c0 .834-.678 1.512-1.512 1.512h-2.324v-11.658h2.324c.833 0 1.512.678 1.512 1.512zm-73.288.371c.503-2.477 1.47-4.808 2.875-6.929.263-.396.21-.923-.126-1.259l-2.537-2.537c-.123-.123-.141-.267-.141-.342 0-.074.018-.218.141-.341l3.765-3.765c.123-.123.267-.142.342-.142s.218.019.341.142l2.537 2.537c.336.337.863.389 1.259.127 2.122-1.405 4.453-2.373 6.928-2.875.466-.095.801-.505.801-.98v-3.583c0-.266.217-.482.483-.482h5.324c.266 0 .483.217.483.482v3.583c0 .476.335.886.801.98 2.475.502 4.806 1.47 6.928 2.875.397.262.923.21 1.259-.127l2.537-2.537c.123-.123.267-.142.341-.142.075 0 .219.019.342.142l3.765 3.765c.123.123.141.267.141.341 0 .075-.018.219-.141.342l-2.537 2.537c-.336.336-.389.862-.126 1.259.643.971 1.181 1.991 1.633 3.046h-7.577c-2.394-3.21-6.206-5.303-10.51-5.303-7.241 0-13.131 5.891-13.131 13.132 0 7.24 5.891 13.131 13.131 13.131 4.304 0 8.116-2.092 10.51-5.303h7.577c-.451 1.055-.989 2.075-1.633 3.046-.263.396-.21.923.126 1.259l2.537 2.537c.123.123.141.267.141.342s-.018.219-.141.342l-3.765 3.765c-.123.123-.267.142-.342.142s-.218-.019-.341-.142l-2.537-2.537c-.336-.337-.862-.39-1.259-.127-2.12 1.404-4.451 2.372-6.928 2.874-.466.095-.801.505-.801.98v3.583c0 .267-.217.483-.483.483h-5.324c-.266 0-.483-.217-.483-.483v-3.583c0-.476-.335-.886-.801-.98-2.477-.502-4.808-1.47-6.928-2.874-.168-.111-.361-.166-.552-.166-.258 0-.514.1-.708.293l-2.537 2.537c-.123.123-.267.142-.341.142s-.218-.019-.341-.142l-3.765-3.765c-.123-.123-.141-.267-.141-.342s.018-.219.141-.342l2.537-2.537c.336-.336.389-.862.126-1.259-1.405-2.121-2.372-4.452-2.875-6.929-.095-.466-.504-.801-.98-.801h-3.583c-.266 0-.483-.217-.483-.482v-5.324c0-.267.217-.483.483-.483h3.583c.476 0 .886-.335.98-.801z"/><path d="m107.217 14.908h-90.434c-3.309 0-6 2.691-6 6v28.736c0 .553.448 1 1 1s1-.447 1-1v-28.736c0-2.206 1.794-4 4-4h90.434c2.206 0 4 1.794 4 4v54.78c0 2.206-1.794 4-4 4h-90.434c-2.206 0-4-1.794-4-4v-8.418c0-.553-.448-1-1-1s-1 .447-1 1v8.419c0 3.309 2.691 6 6 6h90.434c3.309 0 6-2.691 6-6v-54.78c0-3.309-2.692-6.001-6-6.001z"/><path d="m11.783 64.27c.552 0 1-.447 1-1v-9.625c0-.553-.448-1-1-1s-1 .447-1 1v9.625c0 .552.448 1 1 1z"/><path d="m112.5 7.625h-101c-4.411 0-8 3.589-8 8v70.55c0 4.411 3.589 8 8 8h37.755l-5.175 12.54h-10.83c-2.757 0-5 2.243-5 5v3.66c0 .553.448 1 1 1h65.5c.552 0 1-.447 1-1v-3.66c0-2.757-2.243-5-5-5h-10.831l-5.175-12.54h37.756c4.411 0 8-3.589 8-8v-70.55c0-4.411-3.589-8-8-8zm-18.75 104.09v2.66h-63.5v-2.66c0-1.654 1.346-3 3-3h57.5c1.654 0 3 1.346 3 3zm-15.995-5h-31.51l5.174-12.54h21.162zm40.745-20.54c0 3.309-2.691 6-6 6h-101c-3.309 0-6-2.691-6-6v-70.55c0-3.309 2.691-6 6-6h101c3.309 0 6 2.691 6 6z"/></g></g></g></svg>